# xmcd
#
# Track frame offsets:
#	150
#	13375
#	25245
#	36882
#	46470
#	58655
#	69167
#	80922
#	93322
#	108365
#	119437
#	131550
#	143175
#	153415
#	163950
#	175390
#
# Disc length: 2479 seconds
#
# Revision: 1
# Processed by: cddbd v1.4PL0 Copyright (c) Steve Scherf et al.
# Submitted via: audiograbber 1.81.03
#
DISCID=e309ad10
DTITLE=Wilson Pickett - Greatest Hits - Volume 2
DYEAR=1991
DGENRE=Soul
TTITLE0=Something You Got
TTITLE1=Time Is On My Side
TTITLE2=You Left The Water Running
TTITLE3=Danger Zone
TTITLE4=Knock On Wood
TTITLE5=Barefootin'
TTITLE6=New Orleans
TTITLE7=I'm Drifting
TTITLE8=Sunny
TTITLE9=Mercy, Mercy
TTITLE10=Oh Poo Pah Doo
TTITLE11=You're So Fine
TTITLE12=She's So Good To Me
TTITLE13=It's All Over
TTITLE14=Up Tight Good Woman
TTITLE15=Three Time Loser
EXTD=
EXTT0=
EXTT1=
EXTT2=
EXTT3=
EXTT4=
EXTT5=
EXTT6=
EXTT7=
EXTT8=
EXTT9=
EXTT10=
EXTT11=
EXTT12=
EXTT13=
EXTT14=
EXTT15=
PLAYORDER=
